<svg width="40" height="40" viewBox="0 0 40 40" fill="none" xmlns="http://www.w3.org/2000/svg">
<path d="M35.2583 14.313C33.7433 16.8294 31.38 19.3938 28.43 19.2894C27.7417 20.459 27.01 22.0676 26.1983 23.9329L24.0116 24.849C25.5716 20.9676 27.73 16.6306 30.175 13.2627C29.0583 14.1391 27.265 15.9746 25.7383 17.8731C23.9083 14.8448 25.2384 11.7586 27.36 9.29354C27.395 10.3554 27.9584 11.2748 28.3617 11.737C28.2167 10.859 28.1716 9.27034 28.6867 7.84235C29.8833 6.6297 30.96 5.73683 32.2084 4.92674C32.07 5.71856 32.3416 6.62642 32.645 7.18139C32.685 6.36966 33.0183 4.81244 33.5133 4.13322C35.0533 2.92888 37.4 1.8587 40 1.6566C39.8649 3.26847 39.2733 5.92235 38.2933 7.62697C37.4351 8.29623 36.2583 8.75349 35.3084 9.00697C36.1298 9.15436 37.0267 9.1345 37.7983 9.00528C37.3502 10.2361 36.8783 11.3709 36.1351 12.7757C35.0033 13.551 33.505 13.9883 32.4633 14.1424C33.23 14.4522 34.5833 14.5482 35.2583 14.313ZM12.19 20.6164L13.265 21.9102L21.22 17.2866L20.1067 16.0144L12.19 20.6164ZM23.79 20.2221L22.6767 18.9515L14.6683 23.6032L15.7433 24.8971L23.79 20.2221ZM31.5883 20.2337C30.8867 20.57 30.17 20.7986 29.445 20.893C29.245 21.2757 29.035 21.7114 28.8167 22.1736L29.3133 22.7402C30.3516 23.8865 30.0783 25.563 28.6867 26.4492C27.3983 27.2726 19.785 32.0418 18.0433 33.1337C17.92 31.9392 17.4467 30.8292 16.6667 29.9066C15.885 28.9839 6.47498 17.6875 4.12832 14.7024C3.34667 13.7084 3.17 12.6398 3.63667 11.694C4.08333 10.7845 5.04 10.1732 6.02 10.1732C7.55169 10.1732 8.36667 11.2582 8.60164 12.186C8.86831 13.2478 8.54333 14.2252 7.56333 14.9773L9.77836 17.6676L22.7717 10.3024C25.1417 8.5613 25.8084 5.34751 24.3217 2.82614C23.2917 1.08176 21.39 1.32692e-06 19.3583 1.32692e-06C17.3783 1.32692e-06 18.0367 -0.0265052 3.41667 7.41331C1.36 8.39235 0 10.3736 0 12.7177C0 14.159 0.513333 15.6267 1.48167 16.8377C3.86 19.8096 14.0833 32.0536 14.175 32.1729C14.7933 32.9893 14.8867 34.0266 14.425 34.9441C13.9633 35.8638 13.0716 36.4121 12.0433 36.4121C10.5116 36.4121 9.69667 35.3271 9.46169 34.3977C9.20169 33.3555 9.48169 32.3965 10.4684 31.6578L8.34 29.0982C6.97 30.1998 6.21169 31.5765 6.04502 33.1435C5.65836 36.7964 8.58667 39.7584 12.0667 39.7584C13.06 39.7584 14.2517 39.4651 15.135 38.9134L30.8467 29.0634C32.4416 27.9634 33.3333 26.113 33.3333 24.2642C33.3333 23.0301 32.9333 21.8555 32.1867 20.9461L31.5883 20.2337ZM18.3667 3.565C18.68 3.42089 19.03 3.34304 19.3816 3.34304C20.2683 3.34304 21.0433 3.80852 21.4533 4.58879C21.9733 5.5761 21.83 7.02235 20.54 7.75619L12.045 12.5405C11.96 10.7364 11.08 9.09308 9.62 8.01464L18.3667 3.565ZM21.8616 25.7353L22.4633 24.236L22.8784 23.2272L17.13 26.5686L18.205 27.8624L21.8616 25.7353Z" fill="#058AC2"/>
</svg>
